<svg width="21" height="26" viewBox="0 0 21 26" fill="none" xmlns="http://www.w3.org/2000/svg">
<g id="Group">
<g id="Group_2">
<g id="Group_3">
<path id="Vector" d="M16.9977 0.985541V3.991C15.5567 1.73716 13.1428 0.404602 9.99125 0.404602C4.32693 0.404602 0.371094 4.46912 0.371094 10.2076C0.371094 15.911 4.29262 19.8727 10.0256 19.8727C12.9077 19.8727 15.1207 18.8147 16.9977 16.6627V17.2775C16.9977 21.2732 15.154 22.8782 10.2264 22.8782C7.24335 22.8782 5.56717 21.9569 5.23213 19.9755H1.57803C1.94637 23.8005 4.9304 25.9525 10.1931 25.9525C17.2318 25.9525 20.2492 23.1856 20.2492 17.004V0.985541H16.9977ZM10.4948 3.47895C14.6515 3.47895 17.2318 6.00629 17.2318 10.2076C17.2318 14.3399 14.6515 16.7994 10.4948 16.7994C6.33815 16.7994 3.79007 14.3739 3.79007 10.2076C3.79007 6.00629 6.33815 3.47895 10.4948 3.47895Z" fill="#06286E"/>
</g>
</g>
</g>
</svg>
